<svg width="90" height="90" viewBox="0 0 90 90" fill="none" xmlns="http://www.w3.org/2000/svg">
<path d="M20.25 9C17.2663 9 14.4048 10.1853 12.295 12.295C10.1853 14.4048 9 17.2663 9 20.25V60.75C9 63.7337 10.1853 66.5952 12.295 68.705C14.4048 70.8147 17.2663 72 20.25 72H60.75C63.7337 72 66.5952 70.8147 68.705 68.705C70.8147 66.5952 72 63.7337 72 60.75V20.25C72 17.2663 70.8147 14.4048 68.705 12.295C66.5952 10.1853 63.7337 9 60.75 9H20.25ZM42.75 29.25V38.25H51.75C52.3467 38.25 52.919 38.4871 53.341 38.909C53.7629 39.331 54 39.9033 54 40.5C54 41.0967 53.7629 41.669 53.341 42.091C52.919 42.5129 52.3467 42.75 51.75 42.75H42.75V51.75C42.75 52.3467 42.5129 52.919 42.091 53.341C41.669 53.7629 41.0967 54 40.5 54C39.9033 54 39.331 53.7629 38.909 53.341C38.4871 52.919 38.25 52.3467 38.25 51.75V42.75H29.25C28.6533 42.75 28.081 42.5129 27.659 42.091C27.2371 41.669 27 41.0967 27 40.5C27 39.9033 27.2371 39.331 27.659 38.909C28.081 38.4871 28.6533 38.25 29.25 38.25H38.25V29.25C38.25 28.6533 38.4871 28.081 38.909 27.659C39.331 27.2371 39.9033 27 40.5 27C41.0967 27 41.669 27.2371 42.091 27.659C42.5129 28.081 42.75 28.6533 42.75 29.25V29.25ZM33.75 81C29.6267 81.0059 25.6665 79.3895 22.725 76.5H65.25C68.2337 76.5 71.0952 75.3147 73.205 73.205C75.3147 71.0952 76.5 68.2337 76.5 65.25V22.725C79.2855 25.569 81 29.457 81 33.75V65.25C81 69.4272 79.3406 73.4332 76.3869 76.3869C73.4332 79.3406 69.4272 81 65.25 81H33.75Z" fill="#C1C1C1"/>
</svg>
