<svg width="25" height="25" viewBox="0 0 25 25" fill="none" xmlns="http://www.w3.org/2000/svg">
<rect width="25" height="25" fill="#202020"/>
<path d="M12.5 2.08333C10.6027 2.08333 8.82859 2.46039 7.17773 3.21452C5.52688 3.96864 4.21549 4.98589 3.24358 6.26628C2.27167 7.54666 1.78571 8.93012 1.78571 10.4167C1.78571 11.6319 2.11821 12.7903 2.7832 13.8916C3.4482 14.9929 4.38523 15.9451 5.59431 16.748L6.80804 17.5618L6.43136 19.1243C6.20815 20.1118 5.88263 21.0449 5.4548 21.9238C6.86849 21.2402 8.14732 20.3125 9.29129 19.1406L9.89118 18.5221L10.6864 18.6198C11.3281 18.7066 11.9327 18.75 12.5 18.75C14.3973 18.75 16.1714 18.3729 17.8223 17.6188C19.4731 16.8647 20.7845 15.8474 21.7564 14.5671C22.7283 13.2867 23.2143 11.9032 23.2143 10.4167C23.2143 8.93012 22.7283 7.54666 21.7564 6.26628C20.7845 4.98589 19.4731 3.96864 17.8223 3.21452C16.1714 2.46039 14.3973 2.08333 12.5 2.08333ZM25 10.4167C25 12.3047 24.442 14.0489 23.3259 15.6494C22.2098 17.2499 20.6938 18.514 18.7779 19.4417C16.862 20.3695 14.7693 20.8333 12.5 20.8333C11.849 20.8333 11.1747 20.7899 10.4771 20.7031C8.6356 22.602 6.49647 23.9149 4.05971 24.6419C3.60398 24.7938 3.07385 24.9132 2.46931 25H2.39955C2.26004 25 2.13449 24.943 2.02288 24.8291C1.91127 24.7152 1.83687 24.566 1.79967 24.3815V24.3652C1.77176 24.3218 1.76944 24.2567 1.79269 24.1699C1.81594 24.0831 1.82524 24.0289 1.82059 24.0072C1.81594 23.9855 1.83687 23.9339 1.88337 23.8525L1.96708 23.7061L2.06473 23.5677L2.17634 23.4212C2.24144 23.3344 2.3856 23.1472 2.60882 22.8597C2.83203 22.5722 2.99247 22.366 3.09012 22.2412C3.18778 22.1164 3.33194 21.9021 3.5226 21.5983C3.71326 21.2945 3.8644 21.0178 3.976 20.7682C4.08761 20.5187 4.21317 20.1986 4.35268 19.8079C4.49219 19.4173 4.6131 19.005 4.7154 18.571C3.25521 17.6053 2.10426 16.4117 1.26256 14.9902C0.420852 13.5688 0 12.0443 0 10.4167C0 8.52865 0.558036 6.7844 1.67411 5.18392C2.79018 3.58344 4.30618 2.31934 6.2221 1.3916C8.13802 0.463867 10.2307 0 12.5 0C14.7693 0 16.862 0.463867 18.7779 1.3916C20.6938 2.31934 22.2098 3.58344 23.3259 5.18392C24.442 6.7844 25 8.52865 25 10.4167Z" fill="#C1C1C1"/>
</svg>
