<svg width="25" height="25" viewBox="0 0 25 25" fill="none" xmlns="http://www.w3.org/2000/svg">
<path d="M11.1607 12.4998C11.1607 12.855 11.3018 13.1957 11.553 13.4468C11.8042 13.698 12.1448 13.8391 12.5 13.8391C12.8552 13.8391 13.1958 13.698 13.447 13.4468C13.6982 13.1957 13.8393 12.855 13.8393 12.4998C13.8393 12.1446 13.6982 11.804 13.447 11.5528C13.1958 11.3017 12.8552 11.1606 12.5 11.1606C12.1448 11.1606 11.8042 11.3017 11.553 11.5528C11.3018 11.804 11.1607 12.1446 11.1607 12.4998V12.4998ZM16.741 12.4998C16.741 12.855 16.8821 13.1957 17.1333 13.4468C17.3844 13.698 17.7251 13.8391 18.0803 13.8391C18.4355 13.8391 18.7761 13.698 19.0273 13.4468C19.2785 13.1957 19.4196 12.855 19.4196 12.4998C19.4196 12.1446 19.2785 11.804 19.0273 11.5528C18.7761 11.3017 18.4355 11.1606 18.0803 11.1606C17.7251 11.1606 17.3844 11.3017 17.1333 11.5528C16.8821 11.804 16.741 12.1446 16.741 12.4998ZM5.58045 12.4998C5.58045 12.855 5.72155 13.1957 5.97271 13.4468C6.22387 13.698 6.56452 13.8391 6.91971 13.8391C7.27491 13.8391 7.61556 13.698 7.86672 13.4468C8.11788 13.1957 8.25898 12.855 8.25898 12.4998C8.25898 12.1446 8.11788 11.804 7.86672 11.5528C7.61556 11.3017 7.27491 11.1606 6.91971 11.1606C6.56452 11.1606 6.22387 11.3017 5.97271 11.5528C5.72155 11.804 5.58045 12.1446 5.58045 12.4998V12.4998ZM24.0289 7.65615C23.3983 6.15785 22.4943 4.813 21.342 3.65788C20.1977 2.50945 18.8393 1.59658 17.3437 0.97097C15.8091 0.326447 14.1797 0 12.5 0H12.4442C10.7534 0.00837043 9.11556 0.343188 7.5754 1.00166C6.0926 1.63369 4.74693 2.54817 3.61339 3.69415C2.47223 4.84648 1.57659 6.18575 0.957178 7.67848C0.315445 9.22422 -0.00821214 10.8676 0.000158292 12.5584C0.00962595 14.4961 0.468043 16.4052 1.33943 18.1359V22.377C1.33943 22.7173 1.47465 23.0438 1.71535 23.2845C1.95604 23.5252 2.2825 23.6604 2.62289 23.6604H6.8667C8.59741 24.5318 10.5065 24.9902 12.4442 24.9997H12.5028C14.1741 24.9997 15.7952 24.676 17.3214 24.0427C18.8094 23.4245 20.1628 22.5223 21.3057 21.3865C22.458 20.2453 23.3648 18.9116 23.9982 17.4244C24.6567 15.8843 24.9915 14.2465 24.9998 12.5556C25.0082 10.8564 24.679 9.20747 24.0289 7.65615V7.65615ZM19.813 19.877C17.8571 21.8133 15.2622 22.8792 12.5 22.8792H12.4526C10.7701 22.8708 9.09882 22.4523 7.62283 21.6655L7.38846 21.5399H3.45994V17.6114L3.33438 17.377C2.54756 15.901 2.12904 14.2297 2.12067 12.5473C2.10951 9.7655 3.17255 7.15393 5.12286 5.18688C7.07038 3.21983 9.67359 2.13167 12.4554 2.12051H12.5028C13.8979 2.12051 15.2511 2.39115 16.5262 2.92686C17.7706 3.44862 18.8866 4.19917 19.8464 5.15898C20.8035 6.11599 21.5568 7.23484 22.0786 8.47925C22.6199 9.76829 22.8905 11.1355 22.8849 12.5473C22.8682 15.3263 21.7772 17.9295 19.813 19.877V19.877Z" fill="#C1C1C1"/>
</svg>
