<svg width="25" height="25" viewBox="0 0 25 25" fill="none" xmlns="http://www.w3.org/2000/svg">
<path d="M13.4289 0.40909C13.3118 0.28024 13.169 0.177289 13.0098 0.10684C12.8506 0.0363915 12.6784 0 12.5042 0C12.3301 0 12.1579 0.0363915 11.9987 0.10684C11.8394 0.177289 11.6967 0.28024 11.5796 0.40909L0.333399 12.9045C0.167564 13.0833 0.0576726 13.3067 0.0172697 13.5472C-0.0231332 13.7877 0.00771841 14.0347 0.106022 14.2579C0.204325 14.481 0.365783 14.6706 0.570494 14.8031C0.775205 14.9356 1.01422 15.0054 1.25808 15.0037H3.75723V23.7505C3.75723 24.0819 3.88888 24.3997 4.12322 24.634C4.35756 24.8684 4.67539 25 5.0068 25H20.0017C20.3331 25 20.6509 24.8684 20.8853 24.634C21.1196 24.3997 21.2512 24.0819 21.2512 23.7505V15.0037H23.7504C24.0818 15.0037 24.3996 14.872 24.634 14.6377C24.8683 14.4034 25 14.0856 25 13.7542C25.0023 13.4402 24.8863 13.1368 24.6751 12.9045L13.4289 0.40909Z" fill="#C1C1C1"/>
</svg>
