<svg width="31" height="23" viewBox="0 0 31 23" fill="none" xmlns="http://www.w3.org/2000/svg">
<path fill-rule="evenodd" clip-rule="evenodd" d="M29.7262 5.89878C29.8135 5.98586 29.8828 6.08932 29.93 6.20321C29.9773 6.31711 30.0016 6.43921 30.0016 6.56253C30.0016 6.68584 29.9773 6.80794 29.93 6.92184C29.8828 7.03574 29.8135 7.13919 29.7262 7.22628L24.1012 12.8513C24.0141 12.9386 23.9107 13.0079 23.7968 13.0551C23.6829 13.1024 23.5608 13.1267 23.4375 13.1267C23.3141 13.1267 23.192 13.1024 23.0782 13.0551C22.9643 13.0079 22.8608 12.9386 22.7737 12.8513L19.9612 10.0388C19.7852 9.86274 19.6863 9.62398 19.6863 9.37503C19.6863 9.12607 19.7852 8.88731 19.9612 8.71128C20.1373 8.53524 20.376 8.43634 20.625 8.43634C20.8739 8.43634 21.1127 8.53524 21.2887 8.71128L23.4375 10.8619L28.3987 5.89878C28.4858 5.81147 28.5893 5.7422 28.7032 5.69494C28.817 5.64768 28.9391 5.62335 29.0625 5.62335C29.1858 5.62335 29.3079 5.64768 29.4218 5.69494C29.5357 5.7422 29.6391 5.81147 29.7262 5.89878V5.89878Z" fill="white"/>
<path d="M1.875 22.5C1.875 22.5 0 22.5 0 20.625C0 18.75 1.875 13.125 11.25 13.125C20.625 13.125 22.5 18.75 22.5 20.625C22.5 22.5 20.625 22.5 20.625 22.5H1.875ZM11.25 11.25C12.7418 11.25 14.1726 10.6574 15.2275 9.60248C16.2824 8.54758 16.875 7.11684 16.875 5.625C16.875 4.13316 16.2824 2.70242 15.2275 1.64752C14.1726 0.592632 12.7418 0 11.25 0C9.75816 0 8.32742 0.592632 7.27252 1.64752C6.21763 2.70242 5.625 4.13316 5.625 5.625C5.625 7.11684 6.21763 8.54758 7.27252 9.60248C8.32742 10.6574 9.75816 11.25 11.25 11.25V11.25Z" fill="white"/>
</svg>
