<svg width="35" height="30" viewBox="0 0 35 30" fill="none" xmlns="http://www.w3.org/2000/svg">
<path d="M18.125 13.75C18.125 13.5677 18.0664 13.418 17.9492 13.3008C17.832 13.1836 17.6823 13.125 17.5 13.125C16.6406 13.125 15.9049 13.431 15.293 14.043C14.681 14.6549 14.375 15.3906 14.375 16.25C14.375 16.4323 14.4336 16.582 14.5508 16.6992C14.668 16.8164 14.8177 16.875 15 16.875C15.1823 16.875 15.332 16.8164 15.4492 16.6992C15.5664 16.582 15.625 16.4323 15.625 16.25C15.625 15.7292 15.8073 15.2865 16.1719 14.9219C16.5365 14.5573 16.9792 14.375 17.5 14.375C17.6823 14.375 17.832 14.3164 17.9492 14.1992C18.0664 14.082 18.125 13.9323 18.125 13.75ZM22.5 16.2891C22.5 17.6693 22.0117 18.8477 21.0352 19.8242C20.0586 20.8008 18.8802 21.2891 17.5 21.2891C16.1198 21.2891 14.9414 20.8008 13.9648 19.8242C12.9883 18.8477 12.5 17.6693 12.5 16.2891C12.5 14.9089 12.9883 13.7305 13.9648 12.7539C14.9414 11.7773 16.1198 11.2891 17.5 11.2891C18.8802 11.2891 20.0586 11.7773 21.0352 12.7539C22.0117 13.7305 22.5 14.9089 22.5 16.2891ZM2.5 27.5H32.5V25H2.5V27.5ZM25 16.2891C25 14.2188 24.2676 12.4512 22.8027 10.9863C21.3379 9.52148 19.5703 8.78906 17.5 8.78906C15.4297 8.78906 13.6621 9.52148 12.1973 10.9863C10.7324 12.4512 10 14.2188 10 16.2891C10 18.3594 10.7324 20.127 12.1973 21.5918C13.6621 23.0566 15.4297 23.7891 17.5 23.7891C19.5703 23.7891 21.3379 23.0566 22.8027 21.5918C24.2676 20.127 25 18.3594 25 16.2891ZM5 3.75H12.5V1.25H5V3.75ZM2.5 7.5H32.5V2.5H16.3281L15.0781 5H2.5V7.5ZM35 2.5V27.5C35 28.1901 34.7559 28.7793 34.2676 29.2676C33.7793 29.7559 33.1901 30 32.5 30H2.5C1.8099 30 1.2207 29.7559 0.732422 29.2676C0.244141 28.7793 0 28.1901 0 27.5V2.5C0 1.8099 0.244141 1.2207 0.732422 0.732422C1.2207 0.244141 1.8099 0 2.5 0H32.5C33.1901 0 33.7793 0.244141 34.2676 0.732422C34.7559 1.2207 35 1.8099 35 2.5Z" fill="#508991"/>
</svg>
