<svg width="30" height="29" viewBox="0 0 30 29" fill="none" xmlns="http://www.w3.org/2000/svg">
<path d="M15.0004 5.15269L13.656 3.77077C10.5002 0.526921 4.71382 1.64633 2.62501 5.72458C1.64435 7.64276 1.42309 10.4122 3.21377 13.9467C4.93883 17.3499 8.52769 21.4263 15.0004 25.8664C21.4731 21.4263 25.0601 17.3499 26.787 13.9467C28.5777 10.4103 28.3583 7.64276 27.3758 5.72458C25.2869 1.64633 19.5005 0.525046 16.3448 3.76889L15.0004 5.15269ZM15.0004 28.1259C-13.7499 9.12781 6.14824 -5.70014 14.6704 2.14322C14.7829 2.24635 14.8935 2.35323 15.0004 2.46385C15.1062 2.35333 15.2163 2.24699 15.3304 2.1451C23.8507 -5.70389 43.7506 9.12593 15.0004 28.1259Z" fill="#C1C1C1"/>
</svg>
