<svg width="176" height="176" viewBox="0 0 176 176" fill="none" xmlns="http://www.w3.org/2000/svg">
<path d="M175.5 9.3375L166.663 0.5L0.5 166.663L9.3375 175.5L21.8375 163H150.5C153.814 162.995 156.99 161.676 159.333 159.333C161.676 156.99 162.995 153.814 163 150.5V21.8375L175.5 9.3375ZM150.5 150.5H34.3375L83.0437 101.794L97.9125 116.663C100.257 119.006 103.435 120.322 106.75 120.322C110.065 120.322 113.243 119.006 115.587 116.663L125.5 106.75L150.5 131.731V150.5ZM150.5 114.05L134.337 97.8875C131.993 95.5441 128.815 94.2277 125.5 94.2277C122.185 94.2277 119.007 95.5441 116.663 97.8875L106.75 107.8L91.8937 92.9438L150.5 34.3375V114.05ZM25.5 125.5V106.75L56.75 75.5188L65.3313 84.1062L74.1812 75.2563L65.5875 66.6625C63.2434 64.3191 60.0646 63.0027 56.75 63.0027C53.4354 63.0027 50.2566 64.3191 47.9125 66.6625L25.5 89.075V25.5H125.5V13H25.5C22.1858 13.0033 19.0083 14.3213 16.6648 16.6648C14.3213 19.0083 13.0033 22.1858 13 25.5V125.5H25.5Z" fill="#74B3CE"/>
</svg>
