<svg width="76" height="65" viewBox="0 0 76 65" fill="none" xmlns="http://www.w3.org/2000/svg">
<path d="M68.9375 10.7969H56.9844L54.1367 2.81641C53.94 2.27033 53.5794 1.7983 53.1044 1.4648C52.6293 1.13131 52.0629 0.952613 51.4824 0.953126H24.5176C23.3311 0.953126 22.2676 1.7002 21.8721 2.81641L19.0156 10.7969H7.0625C3.17773 10.7969 0.03125 13.9434 0.03125 17.8281V57.9062C0.03125 61.791 3.17773 64.9375 7.0625 64.9375H68.9375C72.8223 64.9375 75.9688 61.791 75.9688 57.9062V17.8281C75.9688 13.9434 72.8223 10.7969 68.9375 10.7969ZM69.6406 57.9062C69.6406 58.293 69.3242 58.6094 68.9375 58.6094H7.0625C6.67578 58.6094 6.35938 58.293 6.35938 57.9062V17.8281C6.35938 17.4414 6.67578 17.125 7.0625 17.125H23.4717L24.9746 12.9238L26.9873 7.28125H49.0039L51.0166 12.9238L52.5195 17.125H68.9375C69.3242 17.125 69.6406 17.4414 69.6406 17.8281V57.9062ZM38 22.75C30.2305 22.75 23.9375 29.043 23.9375 36.8125C23.9375 44.582 30.2305 50.875 38 50.875C45.7695 50.875 52.0625 44.582 52.0625 36.8125C52.0625 29.043 45.7695 22.75 38 22.75ZM38 45.25C33.3418 45.25 29.5625 41.4707 29.5625 36.8125C29.5625 32.1543 33.3418 28.375 38 28.375C42.6582 28.375 46.4375 32.1543 46.4375 36.8125C46.4375 41.4707 42.6582 45.25 38 45.25Z" fill="#74B3CE"/>
</svg>
