<svg width="25" height="25" viewBox="0 0 25 25" fill="none" xmlns="http://www.w3.org/2000/svg">
<path d="M2.08333 25C2.08333 25 0 25 0 22.9167C0 20.8333 2.08333 14.5833 12.5 14.5833C22.9167 14.5833 25 20.8333 25 22.9167C25 25 22.9167 25 22.9167 25H2.08333ZM12.5 12.5C14.1576 12.5 15.7473 11.8415 16.9194 10.6694C18.0915 9.49731 18.75 7.9076 18.75 6.25C18.75 4.5924 18.0915 3.00269 16.9194 1.83058C15.7473 0.65848 14.1576 0 12.5 0C10.8424 0 9.25268 0.65848 8.08058 1.83058C6.90848 3.00269 6.25 4.5924 6.25 6.25C6.25 7.9076 6.90848 9.49731 8.08058 10.6694C9.25268 11.8415 10.8424 12.5 12.5 12.5V12.5Z" fill="#C1C1C1"/>
</svg>
