<svg width="90" height="90" viewBox="0 0 90 90" fill="none" xmlns="http://www.w3.org/2000/svg">
<g clip-path="url(#clip0_14_7)">
<path d="M79.1525 19.6875H24.9609C18.9844 19.6875 14.0625 24.5232 14.0625 30.4682V73.5943C14.0625 79.5393 18.9844 84.375 24.9609 84.375H79.1016C85.0781 84.375 90 79.773 90 73.8281V30.4682C90 24.5232 85.1344 19.6875 79.1525 19.6875V19.6875ZM65.591 30.4699C67.1881 30.4796 68.7466 30.9621 70.0698 31.8565C71.3931 32.7509 72.4218 34.0171 73.0263 35.4955C73.6307 36.9738 73.7839 38.598 73.4663 40.1633C73.1488 41.7286 72.3748 43.1647 71.242 44.2907C70.1093 45.4166 68.6684 46.1818 67.1013 46.4898C65.5341 46.7979 63.9108 46.6349 62.4362 46.0215C60.9615 45.408 59.7016 44.3716 58.8152 43.043C57.9289 41.7144 57.4559 40.153 57.4559 38.5559C57.4642 36.4052 58.3255 34.3458 59.8507 32.8295C61.3759 31.3132 63.4404 30.464 65.591 30.4682V30.4699ZM24.8889 78.9855C21.9006 78.9855 19.64 76.5686 19.64 73.5961V62.2002L35.5412 47.9988C37.0957 46.6314 39.1109 45.9043 41.1803 45.964C43.2498 46.0237 45.2197 46.8658 46.6928 48.3205L57.7037 59.2383L37.8404 78.9838L24.8889 78.9855ZM84.375 73.5943C84.3748 74.3028 84.2349 75.0042 83.9634 75.6586C83.692 76.3129 83.2942 76.9073 82.7928 77.4078C82.2915 77.9084 81.6964 78.3052 81.0416 78.5756C80.3868 78.846 79.6852 78.9847 78.9768 78.9838H45.5273L66.1078 58.5352C67.5683 57.3031 69.4162 56.625 71.3269 56.6198C73.2377 56.6147 75.0891 57.2829 76.5562 58.507L84.375 65.1428V73.5943Z" fill="#C1C1C1"/>
<path d="M67.5 5.625H11.25C8.26631 5.625 5.40483 6.81026 3.29505 8.92005C1.18526 11.0298 0 13.8913 0 16.875L0 61.875C0.00205755 64.3692 0.831514 66.7923 2.3584 68.7645C3.88529 70.7367 6.02332 72.1467 8.4375 72.7734V26.7188C8.4375 23.3621 9.77092 20.1429 12.1444 17.7694C14.5179 15.3959 17.7371 14.0625 21.0938 14.0625H78.3984C77.7717 11.6483 76.3617 9.51029 74.3895 7.9834C72.4173 6.45651 69.9942 5.62706 67.5 5.625Z" fill="#C1C1C1"/>
</g>
<defs>
<clipPath id="clip0_14_7">
<rect width="90" height="90" fill="white"/>
</clipPath>
</defs>
</svg>
