<svg width="30" height="30" viewBox="0 0 30 30" fill="none" xmlns="http://www.w3.org/2000/svg">
<path d="M6.25 27.5C5.20833 27.5 4.32292 27.1354 3.59375 26.4062C2.86458 25.6771 2.5 24.7917 2.5 23.75V6.25C2.5 5.20833 2.86458 4.32292 3.59375 3.59375C4.32292 2.86458 5.20833 2.5 6.25 2.5H23.75C24.7917 2.5 25.6771 2.86458 26.4062 3.59375C27.1354 4.32292 27.5 5.20833 27.5 6.25V23.75C27.5 24.7917 27.1354 25.6771 26.4062 26.4062C25.6771 27.1354 24.7917 27.5 23.75 27.5H6.25ZM6.25 25H23.75C24.1042 25 24.4008 24.88 24.64 24.64C24.88 24.4008 25 24.1042 25 23.75V6.25C25 5.89583 24.88 5.59875 24.64 5.35875C24.4008 5.11958 24.1042 5 23.75 5H6.25C5.89583 5 5.59875 5.11958 5.35875 5.35875C5.11958 5.59875 5 5.89583 5 6.25V23.75C5 24.1042 5.11958 24.4008 5.35875 24.64C5.59875 24.88 5.89583 25 6.25 25ZM7.5 22.5L12.5 17.5L14.75 19.7187L17.5 16.25L22.5 22.5H7.5ZM10 12.5C9.3125 12.5 8.72417 12.255 8.235 11.765C7.745 11.2758 7.5 10.6875 7.5 10C7.5 9.3125 7.745 8.72417 8.235 8.235C8.72417 7.745 9.3125 7.5 10 7.5C10.6875 7.5 11.2763 7.745 11.7663 8.235C12.2554 8.72417 12.5 9.3125 12.5 10C12.5 10.6875 12.2554 11.2758 11.7663 11.765C11.2763 12.255 10.6875 12.5 10 12.5Z" fill="#C1C1C1"/>
</svg>
