<svg width="90" height="90" viewBox="0 0 90 90" fill="none" xmlns="http://www.w3.org/2000/svg">
<path d="M75.9375 19.6875V16.875C75.931 14.6392 75.04 12.4969 73.459 10.916C71.8781 9.33503 69.7358 8.44399 67.5 8.4375H11.25C9.01423 8.44399 6.87189 9.33503 5.29096 10.916C3.71003 12.4969 2.81899 14.6392 2.8125 16.875V61.875C2.81899 64.1108 3.71003 66.2531 5.29096 67.834C6.87189 69.415 9.01423 70.306 11.25 70.3125H14.0625" stroke="#C1C1C1" stroke-width="5.625" stroke-linejoin="round"/>
<path d="M79.1033 22.5H24.9592C20.4944 22.5 16.875 26.1194 16.875 30.5842V73.4783C16.875 77.9431 20.4944 81.5625 24.9592 81.5625H79.1033C83.5681 81.5625 87.1875 77.9431 87.1875 73.4783V30.5842C87.1875 26.1194 83.5681 22.5 79.1033 22.5Z" stroke="#C1C1C1" stroke-width="5.625" stroke-linejoin="round"/>
<path d="M65.5523 43.9787C68.5395 43.9787 70.9611 41.5744 70.9611 38.6086C70.9611 35.6427 68.5395 33.2385 65.5523 33.2385C62.5652 33.2385 60.1436 35.6427 60.1436 38.6086C60.1436 41.5744 62.5652 43.9787 65.5523 43.9787Z" stroke="#C1C1C1" stroke-width="5.625" stroke-miterlimit="10"/>
<path d="M60.1436 65.4205L44.8242 50.2348C43.8449 49.2672 42.535 48.7071 41.1589 48.6677C39.7828 48.6282 38.4429 49.1122 37.4098 50.0221L16.875 68.1398M46.6225 81.5625L67.4684 60.8678C68.4276 59.9217 69.7033 59.3646 71.0492 59.3039C72.3951 59.2432 73.7157 59.6832 74.7562 60.5391L87.1875 70.824" stroke="#C1C1C1" stroke-width="5.625" stroke-linecap="round" stroke-linejoin="round"/>
</svg>
