<svg width="40" height="40" viewBox="0 0 40 40" fill="none" xmlns="http://www.w3.org/2000/svg">
<path d="M35.6312 31.3688C34.6555 30.4341 33.7058 29.4727 32.7833 28.4854C32.0083 27.6979 31.5416 27.125 31.5416 27.125L25.7083 24.3396C28.0437 21.6909 29.3326 18.2812 29.3333 14.75C29.3333 6.71044 22.7916 0.166687 14.75 0.166687C6.70829 0.166687 0.166626 6.71044 0.166626 14.75C0.166626 22.7896 6.70829 29.3334 14.75 29.3334C18.4229 29.3334 21.7708 27.9584 24.3395 25.7104L27.125 31.5438C27.125 31.5438 27.6979 32.0104 28.4854 32.7854C29.2916 33.5417 30.352 34.5646 31.3687 35.6334L34.1979 38.5334L35.4562 39.8792L39.875 35.4604L38.5291 34.2021C37.7395 33.4271 36.6854 32.3979 35.6312 31.3688V31.3688ZM14.75 25.1667C9.00621 25.1667 4.33329 20.4938 4.33329 14.75C4.33329 9.00627 9.00621 4.33335 14.75 4.33335C20.4937 4.33335 25.1666 9.00627 25.1666 14.75C25.1666 20.4938 20.4937 25.1667 14.75 25.1667Z" fill="#C1C1C1"/>
</svg>
