<svg width="42" height="42" viewBox="0 0 42 42" fill="none" xmlns="http://www.w3.org/2000/svg">
<path fill-rule="evenodd" clip-rule="evenodd" d="M30.0105 27.0396L41.2188 38.2479C41.6127 38.6421 41.834 39.1767 41.8338 39.734C41.8336 40.2914 41.612 40.8258 41.2178 41.2198C40.8235 41.6137 40.2889 41.8349 39.7316 41.8347C39.1743 41.8345 38.6398 41.613 38.2459 41.2187L27.0375 30.0104C23.6869 32.6056 19.4735 33.8268 15.2545 33.4257C11.0354 33.0246 7.12761 31.0313 4.32605 27.8512C1.52449 24.6712 0.0396089 20.5433 0.173487 16.3074C0.307365 12.0714 2.04994 8.04552 5.04672 5.04874C8.0435 2.05196 12.0694 0.309379 16.3053 0.175501C20.5413 0.0416231 24.6692 1.5265 27.8492 4.32806C31.0293 7.12963 33.0226 11.0374 33.4237 15.2565C33.8248 19.4756 32.6035 23.689 30.0084 27.0396H30.0105ZM16.8334 29.3333C20.1486 29.3333 23.328 28.0163 25.6722 25.6721C28.0164 23.3279 29.3334 20.1485 29.3334 16.8333C29.3334 13.5181 28.0164 10.3387 25.6722 7.99447C23.328 5.65027 20.1486 4.33331 16.8334 4.33331C13.5182 4.33331 10.3387 5.65027 7.99454 7.99447C5.65034 10.3387 4.33338 13.5181 4.33338 16.8333C4.33338 20.1485 5.65034 23.3279 7.99454 25.6721C10.3387 28.0163 13.5182 29.3333 16.8334 29.3333V29.3333ZM23.0834 18.9166H18.9167V23.0833C18.9167 23.6358 18.6972 24.1657 18.3065 24.5564C17.9158 24.9471 17.3859 25.1666 16.8334 25.1666C16.2808 25.1666 15.7509 24.9471 15.3602 24.5564C14.9695 24.1657 14.75 23.6358 14.75 23.0833V18.9166H10.5834C10.0308 18.9166 9.50094 18.6971 9.11024 18.3064C8.71954 17.9157 8.50004 17.3858 8.50004 16.8333C8.50004 16.2808 8.71954 15.7509 9.11024 15.3602C9.50094 14.9695 10.0308 14.75 10.5834 14.75H14.75V10.5833C14.75 10.0308 14.9695 9.50087 15.3602 9.11017C15.7509 8.71947 16.2808 8.49998 16.8334 8.49998C17.3859 8.49998 17.9158 8.71947 18.3065 9.11017C18.6972 9.50087 18.9167 10.0308 18.9167 10.5833V14.75H23.0834C23.6359 14.75 24.1658 14.9695 24.5565 15.3602C24.9472 15.7509 25.1667 16.2808 25.1667 16.8333C25.1667 17.3858 24.9472 17.9157 24.5565 18.3064C24.1658 18.6971 23.6359 18.9166 23.0834 18.9166Z" fill="#C1C1C1"/>
</svg>
